<?xml version="1.0" encoding="UTF-8" standalone="no"?>
<svg
   xmlns:dc="http://purl.org/dc/elements/1.1/"
   xmlns:cc="http://creativecommons.org/ns#"
   xmlns:rdf="http://www.w3.org/1999/02/22-rdf-syntax-ns#"
   xmlns:svg="http://www.w3.org/2000/svg"
   xmlns="http://www.w3.org/2000/svg"
   version="1.1"
   id="svg4396"
   viewBox="0 0 430.14713 83.156251"
   height="23.468542mm"
   width="121.39708mm">
  <defs
     id="defs4398">
    <clipPath
       clipPathUnits="userSpaceOnUse"
       id="clipPath4418">
      <path
         d="M 0,90 378,90 378,0 0,0 0,90 Z"
         id="path4420" />
    </clipPath>
  </defs>
  <metadata
     id="metadata4401">
    <rdf:RDF>
      <cc:Work
         rdf:about="">
        <dc:format>image/svg+xml</dc:format>
        <dc:type
           rdf:resource="http://purl.org/dc/dcmitype/StillImage" />
        <dc:title></dc:title>
      </cc:Work>
    </rdf:RDF>
  </metadata>
  <g
     transform="translate(-102.06934,-262.21265)"
     id="layer1">
    <g
       id="g4412"
       transform="matrix(1.25,0,0,-1.25,80.893214,360.04065)">
      <g
         id="g4414">
        <g
           id="g4416"
           clip-path="url(#clipPath4418)">
          <g
             id="g4422"
             transform="translate(135.3159,41.9229)">
            <path
               d="m 0,0 c 1.725,-1.442 3.102,-3.28 4,-5.372 l 0,34.438 -47.448,0 c -0.165,-1.191 -0.441,-2.547 -0.868,-4 L 0,25.066 0,0 Z"
               style="fill:#000000;fill-opacity:1;fill-rule:nonzero;stroke:none"
               id="path4424" />
          </g>
          <g
             id="g4426"
             transform="translate(135.3159,20.0479)">
            <path
               d="m 0,0 0,-4.308 -66.842,0 c -2.158,-1.671 -4.621,-3.042 -7.333,-4 L 4,-8.308 4,5.209 C 3.151,3.247 1.836,1.446 0,0"
               style="fill:#000000;fill-opacity:1;fill-rule:nonzero;stroke:none"
               id="path4428" />
          </g>
          <g
             id="g4430"
             transform="translate(122.5244,24.7598)">
            <path
               d="m 0,0 -3.066,0 0,13.062 C 4.042,13.271 9.375,12.729 9.375,6.144 9.375,3.271 7.625,0 0,0 m -3.243,34.142 3.076,0 c 2.878,0 6.407,-1.371 6.407,-5.213 0,-5.055 -4.886,-5.823 -9.483,-5.823 l 0,11.036 z m 6.825,-15.623 -0.025,0 c 5.485,1.21 7.921,5.055 7.921,10.41 0,6 -3.52,10.5 -13.103,10.5 l -8.333,0 -10e-4,-45.662 11.126,0 c 9.625,0 14.791,5.541 14.791,12.377 0,6.834 -5.541,12.375 -12.376,12.375"
               style="fill:#be8b00;fill-opacity:1;fill-rule:nonzero;stroke:none"
               id="path4432" />
          </g>
          <g
             id="g4434"
             transform="translate(79.4673,61.5166)">
            <path
               d="m 0,0 c 0.822,0.83 1.415,1.453 2.102,2.848 1.497,3.041 0.288,4.2 -1.878,2.5 -1.981,-1.555 -4,-3.686 -7.122,-7.586 -6.29,-7.857 -32.003,-47.041 -46.124,-47.041 -6.067,0 -9.004,4.336 -9.004,8.086 0,4.795 2.937,8.078 7.375,8.078 4.256,0 5.397,-3.84 5.125,-5.35 8.835,3.572 17.564,13.322 36.602,35.664 C 1.849,14.535 10.224,20.098 10.474,13.639 7.536,3.723 1.016,0.389 0,0"
               style="fill:#1c2564;fill-opacity:1;fill-rule:nonzero;stroke:none"
               id="path4436" />
          </g>
          <g
             id="g4438"
             transform="translate(24.8159,27.9014)">
            <path
               d="m 0,0 c -4.112,0 -6.875,-3.045 -6.875,-7.578 0,-3.77 2.921,-7.586 8.504,-7.586 11.51,0 31.49,27.43 41.092,40.613 2.003,2.749 3.585,4.92 4.642,6.24 3.078,3.846 5.165,6.068 7.203,7.667 1.361,1.068 2.595,1.14 3.112,0.309 0.441,-0.71 0.277,-1.894 -0.476,-3.423 -0.135,-0.273 -0.266,-0.517 -0.396,-0.742 2.34,1.744 5.868,5.308 7.816,11.816 -0.104,2.045 -1.068,2.045 -1.434,2.045 -1.503,0 -6.566,-1.838 -21.081,-18.871 C 22.364,7.32 14.077,-1.77 5.312,-5.312 c 0,0 -0.633,-0.269 -0.84,-0.34 0.106,0.271 0.161,0.891 0.161,0.891 0.113,0.624 -0.072,2.05 -1.047,3.218 C 2.73,-0.52 1.523,0 0,0 m 1.629,-16.164 c -6.173,0 -9.504,4.424 -9.504,8.586 C -7.875,-2.447 -4.71,1 0,1 2.284,1 3.628,-0.035 4.354,-0.902 5.168,-1.877 5.581,-3.1 5.652,-4.084 c 8.309,3.672 16.613,12.83 35.695,35.223 7.472,8.769 17.328,19.222 21.841,19.222 0.865,0 2.333,-0.4 2.437,-3.088 l 0.003,-0.082 -0.024,-0.079 C 62.355,36.145 54.905,33.178 54.83,33.148 l -2.165,-0.83 1.631,1.649 c 0.828,0.837 1.368,1.416 2.008,2.717 0.669,1.358 0.7,2.17 0.525,2.453 -0.025,0.039 -0.07,0.112 -0.25,0.112 -0.159,0 -0.614,-0.066 -1.395,-0.68 C 53.21,37.021 51.171,34.847 48.143,31.064 47.101,29.763 45.525,27.6 43.529,24.859 33.086,10.523 13.648,-16.164 1.629,-16.164"
               style="fill:#2bbbf2;fill-opacity:1;fill-rule:nonzero;stroke:none"
               id="path4440" />
          </g>
          <g
             id="g4442"
             transform="translate(100.5024,64.1924)">
            <path
               d="M 0,0 -4.135,-13.186 -8.27,0 l -8.462,0 0,-21.96 5.038,0 0,15.768 c 0.302,-1.568 5.04,-15.768 5.04,-15.768 l 5.039,0 c 0,0 4.737,14.2 5.04,15.768 l 0,-15.768 5.038,0 L 8.463,0 0,0 Z"
               style="fill:#be8b00;fill-opacity:1;fill-rule:nonzero;stroke:none"
               id="path4444" />
          </g>
          <g
             id="g4446"
             transform="translate(100.5024,40.4873)">
            <path
               d="M 0,0 -4.135,-13.186 -8.27,0 l -8.462,0 0,-21.96 5.038,0 0,15.768 c 0.302,-1.568 5.04,-15.768 5.04,-15.768 l 5.039,0 c 0,0 4.737,14.2 5.04,15.768 l 0,-15.768 5.038,0 L 8.463,0 0,0 Z"
               style="fill:#be8b00;fill-opacity:1;fill-rule:nonzero;stroke:none"
               id="path4448" />
          </g>
          <g
             id="g4450"
             transform="translate(64.6816,30.1553)">
            <path
               d="m 0,0 c -1.38,-3.276 -5.623,-5.666 -9.621,-5.666 -6.495,0 -12.213,6.054 -12.213,11.871 0,3.098 0.468,13.809 22.116,13.809 22.275,0 25.936,20.653 24.977,24.986 -5.458,-17.5 -20.125,-16.439 -26,-16.041 -6.138,0.417 -24.661,2.647 -33.147,-11.5 -1.858,-3.098 -2.947,-6.019 -2.947,-11.699 0,-9.668 5.469,-18.114 14.359,-21.955 C -9.022,-15.979 -0.334,-4.447 0,0"
               style="fill:#1c2564;fill-opacity:1;fill-rule:nonzero;stroke:none"
               id="path4452" />
          </g>
          <g
             id="g4454"
             transform="translate(56.3311,58.9912)">
            <path
               d="m 0,0 c -12.03,0 -20.478,-3.914 -25.108,-11.635 -1.822,-3.037 -2.877,-5.883 -2.877,-11.441 0,-9.477 5.345,-17.687 13.959,-21.453 10.691,0.221 18.084,7.695 20.769,12.638 -2.037,-1.882 -5.031,-3.111 -8.014,-3.111 -6.534,0 -12.712,6.012 -12.712,12.371 0,9.361 7.82,14.309 22.615,14.309 8.258,0 14.717,2.83 19.199,8.412 3.697,4.603 5.156,10.063 5.391,13.483 C 29.471,4.202 22.207,-0.545 11.595,-0.545 c -1.535,0 -2.878,0.092 -3.956,0.165 L 6.49,-0.297 C 4.832,-0.171 2.561,0 0,0 m -14.225,-45.532 -0.099,0.042 c -9.043,3.908 -14.661,12.496 -14.661,22.414 0,5.79 1.107,8.768 3.019,11.957 C -21.142,-3.077 -12.406,1 0,1 2.599,1 4.892,0.827 6.566,0.701 L 7.644,0.622 c 1.126,-0.077 2.45,-0.167 3.951,-0.167 11.009,0 18.256,5.336 21.537,15.858 0,0 0.467,1.607 0.478,1.888 0.503,-0.75 0.593,-2.423 0.622,-3.047 C 34.39,11.826 33.065,5.012 28.61,-0.537 23.995,-6.284 17.087,-9.322 8.632,-9.322 c -9.861,0 -21.615,-2.309 -21.615,-13.309 0,-5.845 5.692,-11.371 11.712,-11.371 3.871,0 7.895,2.355 9.161,5.361 l 1.189,2.823 -0.23,-3.055 c -0.374,-4.981 -9.44,-16.44 -22.967,-16.658 l -0.107,-10e-4 z"
               style="fill:#2bbbf2;fill-opacity:1;fill-rule:nonzero;stroke:none"
               id="path4456" />
          </g>
          <g
             id="g4458"
             transform="translate(24.7534,26.6143)">
            <path
               d="m 0,0 c -2.521,0.187 -5.156,-1.969 -5.323,-5.678 0.5,1.292 2.385,5.032 7.511,3.615 C 2.169,-1.958 2.054,-0.121 0,0"
               style="fill:#ffffff;fill-opacity:1;fill-rule:nonzero;stroke:none"
               id="path4460" />
          </g>
          <g
             id="g4462"
             transform="translate(45.8398,19.8643)">
            <path
               d="m 0,0 c -0.227,0 -1.217,0.221 -1.217,0.221 -6.012,1.354 -14.166,8.176 -13.472,19.102 0.658,10.056 9.08,20.794 26.01,20.794 0.136,0 0.271,-10e-4 0.407,-0.002 l -0.01,-1 C -4.835,39.304 -13.058,28.939 -13.691,19.259 -14.3,9.678 -7.743,3.437 -2.269,1.559 c -2.812,4.517 -3.788,9.388 -2.824,14.166 1.156,5.73 4.681,9.763 6.769,11.077 L 2.208,25.955 C 0.341,24.781 -3.026,20.911 -4.113,15.526 -5.117,10.551 -3.968,5.662 -0.697,0.995 -0.697,0.995 -0.132,0.218 0,0"
               style="fill:#2bbbf2;fill-opacity:1;fill-rule:nonzero;stroke:none"
               id="path4464" />
          </g>
          <g
             id="g4466"
             transform="translate(164.7656,70.6123)">
            <path
               d="M 0,0 -4.065,-12.963 -8.129,0 l -8.321,0 0,-21.589 4.953,0 0,15.501 c 0.298,-1.541 4.955,-15.501 4.955,-15.501 l 4.954,0 c 0,0 4.657,13.96 4.955,15.501 l 0,-15.501 4.953,0 L 8.32,0 0,0 Z"
               style="fill:#000000;fill-opacity:1;fill-rule:nonzero;stroke:none"
               id="path4468" />
          </g>
          <g
             id="g4470"
             transform="translate(188.1494,64.8867)">
            <path
               d="m 0,0 -3.049,-7.411 6.08,0 L 0,0 Z m -2.22,5.724 4.386,0 8.74,-21.587 -4.495,0 -1.778,4.446 -9.272,0 -1.849,-4.446 -4.495,0 8.763,21.587 z"
               style="fill:#000000;fill-opacity:1;fill-rule:nonzero;stroke:none"
               id="path4472" />
          </g>
          <g
             id="g4474"
             transform="translate(223.6587,49.0234)">
            <path
               d="m 0,0 -4.911,0 -8.903,13.574 c -0.523,0.792 -0.884,1.392 -1.085,1.792 l -0.06,0 c 0.079,-0.762 0.12,-1.928 0.12,-3.494 l 0,-11.872 -4.595,0 0,21.604 5.244,0 8.572,-13.152 c 0.39,-0.594 0.752,-1.181 1.084,-1.764 l 0.06,0 c -0.08,0.503 -0.121,1.493 -0.121,2.969 l 0,11.947 4.595,0 L 0,0 Z"
               style="fill:#000000;fill-opacity:1;fill-rule:nonzero;stroke:none"
               id="path4476" />
          </g>
          <path
             d="m 235.361,49.023 -4.869,0 0,21.604 4.869,0 0,-21.604 z"
             style="fill:#000000;fill-opacity:1;fill-rule:nonzero;stroke:none"
             id="path4478" />
          <g
             id="g4480"
             transform="translate(257.3105,66.665)">
            <path
               d="m 0,0 -6.161,0 0,-17.642 -4.881,0 0,17.642 -6.132,0 0,3.963 L 0,3.963 0,0 Z"
               style="fill:#000000;fill-opacity:1;fill-rule:nonzero;stroke:none"
               id="path4482" />
          </g>
          <g
             id="g4484"
             transform="translate(271.4766,66.7998)">
            <path
               d="m 0,0 c -1.707,0 -3.063,-0.639 -4.066,-1.92 -1.006,-1.281 -1.508,-2.976 -1.508,-5.085 0,-2.139 0.502,-3.831 1.508,-5.077 1.003,-1.245 2.32,-1.868 3.947,-1.868 1.676,0 3.008,0.604 3.992,1.815 0.984,1.211 1.477,2.891 1.477,5.04 0,2.24 -0.479,3.982 -1.432,5.228 C 2.963,-0.623 1.658,0 0,0 m -0.209,-18.153 c -3.094,0 -5.615,1.007 -7.564,3.02 -1.948,2.014 -2.922,4.638 -2.922,7.873 0,3.414 0.988,6.176 2.966,8.285 1.979,2.11 4.602,3.164 7.866,3.164 3.082,0 5.576,-1.009 7.48,-3.028 1.903,-2.019 2.854,-4.681 2.854,-7.985 0,-3.395 -0.987,-6.131 -2.961,-8.211 -1.973,-2.078 -4.547,-3.118 -7.719,-3.118"
               style="fill:#000000;fill-opacity:1;fill-rule:nonzero;stroke:none"
               id="path4486" />
          </g>
          <g
             id="g4488"
             transform="translate(315.6445,70.6279)">
            <path
               d="m 0,0 -5.709,-21.604 -5.393,0 -3.586,13.86 c -0.191,0.723 -0.306,1.531 -0.345,2.426 l -0.063,0 c -0.09,-0.985 -0.22,-1.793 -0.39,-2.426 l -3.676,-13.86 -5.621,0 -5.678,21.604 5.316,0 3.045,-14.389 c 0.129,-0.613 0.225,-1.435 0.286,-2.47 l 0.089,0 c 0.041,0.773 0.186,1.617 0.438,2.531 L -17.369,0 l 5.211,0 3.541,-14.509 c 0.131,-0.532 0.246,-1.305 0.346,-2.319 l 0.062,0 c 0.039,0.792 0.145,1.596 0.314,2.41 L -4.91,0 0,0 Z"
               style="fill:#000000;fill-opacity:1;fill-rule:nonzero;stroke:none"
               id="path4490" />
          </g>
          <g
             id="g4492"
             transform="translate(329.627,66.7998)">
            <path
               d="m 0,0 c -1.709,0 -3.064,-0.639 -4.068,-1.92 -1.004,-1.281 -1.508,-2.976 -1.508,-5.085 0,-2.139 0.504,-3.831 1.508,-5.077 1.004,-1.245 2.32,-1.868 3.947,-1.868 1.678,0 3.008,0.604 3.992,1.815 0.984,1.211 1.477,2.891 1.477,5.04 0,2.24 -0.479,3.982 -1.432,5.228 C 2.961,-0.623 1.656,0 0,0 m -0.211,-18.153 c -3.096,0 -5.613,1.007 -7.562,3.02 -1.95,2.014 -2.924,4.638 -2.924,7.873 0,3.414 0.988,6.176 2.968,8.285 1.979,2.11 4.6,3.164 7.864,3.164 3.082,0 5.576,-1.009 7.48,-3.028 1.903,-2.019 2.854,-4.681 2.854,-7.985 0,-3.395 -0.987,-6.131 -2.959,-8.211 -1.975,-2.078 -4.549,-3.118 -7.721,-3.118"
               style="fill:#000000;fill-opacity:1;fill-rule:nonzero;stroke:none"
               id="path4494" />
          </g>
          <g
             id="g4496"
             transform="translate(361.0586,49.792)">
            <path
               d="m 0,0 c -1.576,-0.764 -3.637,-1.146 -6.178,-1.146 -3.312,0 -5.918,0.975 -7.818,2.923 -1.897,1.949 -2.846,4.545 -2.846,7.789 0,3.455 1.067,6.258 3.201,8.407 2.133,2.148 4.903,3.224 8.307,3.224 2.111,0 3.889,-0.266 5.334,-0.799 l 0,-4.685 c -1.445,0.863 -3.092,1.295 -4.941,1.295 -2.028,0 -3.664,-0.638 -4.911,-1.912 -1.246,-1.276 -1.869,-3.004 -1.869,-5.183 0,-2.09 0.588,-3.755 1.764,-4.994 1.174,-1.241 2.756,-1.861 4.744,-1.861 1.9,0 3.637,0.462 5.213,1.386 L 0,0 Z"
               style="fill:#000000;fill-opacity:1;fill-rule:nonzero;stroke:none"
               id="path4498" />
          </g>
          <g
             id="g4500"
             transform="translate(164.7656,33.3291)">
            <path
               d="M 0,0 -4.065,-12.962 -8.129,0 l -8.321,0 0,-21.589 4.953,0 0,15.501 c 0.298,-1.541 4.955,-15.501 4.955,-15.501 l 4.954,0 c 0,0 4.657,13.96 4.955,15.501 l 0,-15.501 4.953,0 L 8.32,0 0,0 Z"
               style="fill:#000000;fill-opacity:1;fill-rule:nonzero;stroke:none"
               id="path4502" />
          </g>
          <g
             id="g4504"
             transform="translate(188.0093,27.6035)">
            <path
               d="m 0,0 -3.048,-7.411 6.079,0 L 0,0 Z m -2.22,5.724 4.386,0 8.74,-21.587 -4.496,0 -1.777,4.446 -9.272,0 -1.849,-4.446 -4.494,0 8.762,21.587 z"
               style="fill:#000000;fill-opacity:1;fill-rule:nonzero;stroke:none"
               id="path4506" />
          </g>
          <g
             id="g4508"
             transform="translate(206.2163,29.6982)">
            <path
               d="m 0,0 0,-6.011 2.109,0 c 1.045,0 1.884,0.302 2.518,0.904 0.642,0.612 0.963,1.371 0.963,2.275 C 5.59,-0.943 4.46,0 2.201,0 L 0,0 Z m 13.258,-17.958 -5.589,0 -3.359,5.56 c -0.251,0.421 -0.493,0.796 -0.724,1.128 -0.231,0.332 -0.465,0.616 -0.7,0.852 -0.237,0.236 -0.483,0.417 -0.738,0.543 -0.256,0.125 -0.535,0.187 -0.837,0.187 l -1.311,0 0,-8.27 -4.865,0 0,21.604 7.713,0 c 5.243,0 7.864,-1.959 7.864,-5.876 0,-0.752 -0.116,-1.449 -0.347,-2.086 C 10.135,-4.954 9.809,-5.529 9.387,-6.041 8.965,-6.553 8.455,-6.996 7.857,-7.367 7.26,-7.739 6.595,-8.03 5.861,-8.24 l 0,-0.061 c 0.323,-0.101 0.633,-0.263 0.935,-0.49 0.3,-0.226 0.593,-0.489 0.873,-0.791 0.281,-0.301 0.55,-0.625 0.807,-0.972 0.254,-0.346 0.489,-0.685 0.7,-1.016 l 4.082,-6.388 z"
               style="fill:#000000;fill-opacity:1;fill-rule:nonzero;stroke:none"
               id="path4510" />
          </g>
          <path
             d="m 227.211,11.74 -4.868,0 0,21.604 4.868,0 0,-21.604 z"
             style="fill:#000000;fill-opacity:1;fill-rule:nonzero;stroke:none"
             id="path4512" />
          <g
             id="g4514"
             transform="translate(250.8159,11.7402)">
            <path
               d="m 0,0 -4.91,0 -8.904,13.574 c -0.523,0.792 -0.884,1.392 -1.084,1.792 l -0.061,0 c 0.08,-0.762 0.12,-1.928 0.12,-3.494 l 0,-11.872 -4.595,0 0,21.604 5.244,0 8.572,-13.152 c 0.39,-0.594 0.753,-1.181 1.084,-1.764 l 0.06,0 c -0.08,0.503 -0.12,1.493 -0.12,2.969 l 0,11.947 4.594,0 L 0,0 Z"
               style="fill:#000000;fill-opacity:1;fill-rule:nonzero;stroke:none"
               id="path4516" />
          </g>
          <g
             id="g4518"
             transform="translate(267.9355,11.7402)">
            <path
               d="m 0,0 -12.957,0 0,21.604 12.459,0 0,-3.962 -7.592,0 0,-4.807 7.065,0 0,-3.947 -7.065,0 0,-4.942 8.09,0 L 0,0 Z"
               style="fill:#000000;fill-opacity:1;fill-rule:nonzero;stroke:none"
               id="path4520" />
          </g>
          <g
             id="g4522"
             transform="translate(283.7578,21.1689)">
            <path
               d="m 0,0 0,-5.52 1.027,0 c 1.703,0 2.85,0.215 3.442,0.645 0.593,0.43 0.888,1.055 0.888,1.874 0,0.927 -0.345,1.659 -1.043,2.196 C 3.619,-0.268 2.465,0 0.852,0 L 0,0 Z m 0,8.199 0,-4.539 0.896,0 c 0.999,0 1.743,0.211 2.227,0.629 C 3.607,4.71 3.85,5.28 3.85,6.004 3.85,6.676 3.619,7.211 3.16,7.605 2.699,8.002 1.998,8.199 1.059,8.199 L 0,8.199 Z m -4.1,-17.628 0,21.537 3.387,0 c 1.963,0 3.399,-0.128 4.309,-0.381 C 4.885,11.387 5.91,10.751 6.674,9.824 7.436,8.896 7.818,7.804 7.818,6.545 7.818,5.725 7.645,4.98 7.297,4.312 6.951,3.643 6.389,3.016 5.607,2.43 6.916,1.815 7.871,1.047 8.477,0.125 9.082,-0.798 9.385,-1.889 9.385,-3.148 9.385,-4.358 9.072,-5.461 8.447,-6.457 7.82,-7.452 7.014,-8.196 6.027,-8.689 5.041,-9.183 3.678,-9.429 1.939,-9.429 l -6.039,0 z"
               style="fill:#000000;fill-opacity:1;fill-rule:nonzero;stroke:none"
               id="path4524" />
          </g>
          <g
             id="g4526"
             transform="translate(304.9687,27.6035)">
            <path
               d="m 0,0 -3.049,-7.411 6.078,0 L 0,0 Z m -2.221,5.724 4.387,0 8.74,-21.587 -4.496,0 -1.777,4.446 -9.274,0 -1.847,-4.446 -4.494,0 8.761,21.587 z"
               style="fill:#000000;fill-opacity:1;fill-rule:nonzero;stroke:none"
               id="path4528" />
          </g>
          <g
             id="g4530"
             transform="translate(337.707,11.7402)">
            <path
               d="m 0,0 -4.912,0 -8.902,13.574 c -0.524,0.792 -0.885,1.392 -1.086,1.792 l -0.061,0 c 0.082,-0.762 0.123,-1.928 0.123,-3.494 l 0,-11.872 -4.598,0 0,21.604 5.245,0 8.572,-13.152 c 0.392,-0.594 0.752,-1.181 1.084,-1.764 l 0.062,0 c -0.082,0.503 -0.123,1.493 -0.123,2.969 l 0,11.947 4.596,0 L 0,0 Z"
               style="fill:#000000;fill-opacity:1;fill-rule:nonzero;stroke:none"
               id="path4532" />
          </g>
          <g
             id="g4534"
             transform="translate(346.748,29.3818)">
            <path
               d="m 0,0 0,-13.695 2.412,0 c 2.108,0 3.764,0.633 4.963,1.898 1.201,1.266 1.801,2.988 1.801,5.168 0,2.059 -0.596,3.678 -1.783,4.859 C 6.199,-0.59 4.529,0 2.381,0 L 0,0 Z m -4.863,-17.642 0,21.605 7.652,0 c 7.672,0 11.508,-3.511 11.508,-10.531 0,-3.366 -1.045,-6.051 -3.141,-8.061 -2.093,-2.009 -4.883,-3.013 -8.367,-3.013 l -7.652,0 z"
               style="fill:#000000;fill-opacity:1;fill-rule:nonzero;stroke:none"
               id="path4536" />
          </g>
          <path
             d="m 361.039,38.568 -212.723,0 0,5.215 212.723,0 0,-5.215 z"
             style="fill:#000000;fill-opacity:1;fill-rule:nonzero;stroke:none"
             id="path4538" />
          <g
             id="g4540"
             transform="translate(76.3159,34.3643)">
            <path
               d="m 0,0 c 0,13.902 -11.057,17.365 -16.583,17.365 -8.849,0 -14.167,-5.602 -14.167,-12.147 0,-7.144 6.756,-9.45 9.808,-8.655 -1.683,0.837 -4.436,2.457 -3.721,6.45 0.883,4.932 5.967,5.74 8.421,4.944 2.825,-0.916 5.804,-3.121 5.138,-9.561 -0.781,-7.539 -8.767,-17.265 -22.996,-18.798 3.074,-1.321 6.492,-1.723 10.115,-1.723 C -10,-22.125 0,-10.814 0,0"
               style="fill:#2bbbf2;fill-opacity:1;fill-rule:nonzero;stroke:none"
               id="path4542" />
          </g>
          <g
             id="g4544"
             transform="translate(44.2847,13.7412)">
            <path
               d="m 0,0 c 2.257,-0.68 4.867,-1.002 8.046,-1.002 13.84,0 23.485,11.397 23.485,21.625 0,13.34 -10.52,16.865 -16.083,16.865 -8.972,0 -13.667,-5.859 -13.667,-11.647 0,-5.523 4.363,-8.116 7.661,-8.294 -1.472,1 -3.165,2.831 -2.566,6.177 0.937,5.235 6.242,6.249 9.067,5.333 4.19,-1.359 6.034,-4.753 5.481,-10.09 C 20.617,11.17 12.88,2.165 0,0 m 8.046,-2.002 c -4.236,0 -7.513,0.561 -10.312,1.764 -0.45,0.191 -1.166,0.513 -1.609,0.767 0.361,0.039 1.753,0.189 1.753,0.189 13.564,1.462 21.743,10.546 22.551,18.352 0.505,4.87 -1.063,7.826 -4.794,9.035 C 13.279,28.867 8.66,28.011 7.86,23.548 7.252,20.15 9.264,18.652 11.312,17.635 l 1.196,-0.596 c -0.289,-0.166 -1.289,-0.502 -2.704,-0.502 -3.747,0 -9.023,2.887 -9.023,9.304 0,6.285 5.038,12.647 14.667,12.647 5.908,0 17.083,-3.734 17.083,-17.865 0,-10.701 -10.055,-22.625 -24.485,-22.625"
               style="fill:#1c2564;fill-opacity:1;fill-rule:nonzero;stroke:none"
               id="path4546" />
          </g>
          <g
             id="g4548"
             transform="translate(72.9819,39.8232)">
            <path
               d="m 0,0 c -0.223,0 -0.425,0.149 -0.484,0.375 -1.22,4.727 -6.764,8.791 -12.106,8.875 -0.277,0.004 -0.497,0.232 -0.493,0.508 0.005,0.276 0.208,0.488 0.508,0.492 C -6.819,10.159 -0.839,5.751 0.485,0.625 0.554,0.357 0.393,0.085 0.125,0.016 0.083,0.005 0.042,0 0,0"
               style="fill:#ffffff;fill-opacity:1;fill-rule:nonzero;stroke:none"
               id="path4550" />
          </g>
          <g
             id="g4552"
             transform="translate(66.9824,19.2393)">
            <path
               d="M 0,0 C -0.137,0 -0.273,0.056 -0.372,0.165 -0.556,0.37 -0.54,0.687 -0.334,0.871 5.604,6.223 6.672,12.008 6.521,15.918 6.511,16.194 6.726,16.427 7.002,16.437 7.264,16.44 7.51,16.233 7.521,15.957 7.679,11.832 6.562,5.738 0.334,0.129 0.239,0.042 0.12,0 0,0"
               style="fill:#ffffff;fill-opacity:1;fill-rule:nonzero;stroke:none"
               id="path4554" />
          </g>
          <g
             id="g4556"
             transform="translate(81.5688,47.2295)">
            <path
               d="M 0,0 C 0,-2.485 -2.015,-4.5 -4.5,-4.5 -6.985,-4.5 -9,-2.485 -9,0 -9,2.485 -6.985,4.5 -4.5,4.5 -2.015,4.5 0,2.485 0,0"
               style="fill:#2bbbf2;fill-opacity:1;fill-rule:nonzero;stroke:none"
               id="path4558" />
          </g>
          <g
             id="g4560"
             transform="translate(77.0688,51.2295)">
            <path
               d="m 0,0 c -2.206,0 -4,-1.794 -4,-4 0,-2.206 1.794,-4 4,-4 2.206,0 4,1.794 4,4 0,2.206 -1.794,4 -4,4 m 0,-9 c -2.757,0 -5,2.243 -5,5 0,2.757 2.243,5 5,5 2.757,0 5,-2.243 5,-5 0,-2.757 -2.243,-5 -5,-5"
               style="fill:#1c2564;fill-opacity:1;fill-rule:nonzero;stroke:none"
               id="path4562" />
          </g>
          <g
             id="g4564"
             transform="translate(77.5972,50.6768)">
            <path
               d="M 0,0 C 1.375,-0.25 2.625,-1.469 2.688,-3.063 1.312,-1.25 -0.062,-0.969 -1.906,-1.187 -1.625,-0.531 -0.75,-0.031 0,0"
               style="fill:#ffffff;fill-opacity:1;fill-rule:nonzero;stroke:none"
               id="path4566" />
          </g>
          <g
             id="g4568"
             transform="translate(81.5688,38.2295)">
            <path
               d="M 0,0 C 0,-2.485 -2.015,-4.5 -4.5,-4.5 -6.985,-4.5 -9,-2.485 -9,0 -9,2.485 -6.985,4.5 -4.5,4.5 -2.015,4.5 0,2.485 0,0"
               style="fill:#2bbbf2;fill-opacity:1;fill-rule:nonzero;stroke:none"
               id="path4570" />
          </g>
          <g
             id="g4572"
             transform="translate(77.0688,42.2295)">
            <path
               d="m 0,0 c -2.206,0 -4,-1.794 -4,-4 0,-2.206 1.794,-4 4,-4 2.206,0 4,1.794 4,4 0,2.206 -1.794,4 -4,4 m 0,-9 c -2.757,0 -5,2.243 -5,5 0,2.757 2.243,5 5,5 2.757,0 5,-2.243 5,-5 0,-2.757 -2.243,-5 -5,-5"
               style="fill:#1c2564;fill-opacity:1;fill-rule:nonzero;stroke:none"
               id="path4574" />
          </g>
          <g
             id="g4576"
             transform="translate(77.5972,41.6768)">
            <path
               d="M 0,0 C 1.375,-0.25 2.625,-1.469 2.688,-3.063 1.312,-1.25 -0.062,-0.969 -1.906,-1.187 -1.625,-0.531 -0.75,-0.031 0,0"
               style="fill:#ffffff;fill-opacity:1;fill-rule:nonzero;stroke:none"
               id="path4578" />
          </g>
        </g>
      </g>
    </g>
  </g>
</svg>
